<?xml version="1.0" encoding="UTF-8"?>
<svg id="Layer_1" data-name="Layer 1" xmlns="http://www.w3.org/2000/svg" viewBox="0 0 960 960">
  <defs>
    <style>
      .cls-1 {
        fill-rule: evenodd;
      }

      .cls-1, .cls-2 {
        fill: #00a9e0;
        stroke-width: 0px;
      }
    </style>
  </defs>
  <path class="cls-1" d="M873.98,425.37c0,13.42-9.5,21.36-23.89,21.36h-48.26v-41.19h48.26c18.24,0,23.89,12.55,23.89,19.83ZM877.1,477.89c20.32-15.6,29.26-31.83,27.84-52.66-2.08-30.41-26.66-50.79-54.71-50.79h-80.36v175.78h31.93v-72.32h37.75l45.14,72.32h37.72l-45.31-72.32Z"/>
  <path class="cls-1" d="M526.62,484.48l41.26,65.63,37.96.07-58.52-93.09-20.7,27.39Z"/>
  <path class="cls-1" d="M594.23,374.4h-40.56l-83.59,111.12v-111.12h-32.1v160.21c0,5.86,3.43,13.14,12.62,15.25,3.64.83,10.92-.07,15.29-5.79.55-.69,128.31-169.68,128.31-169.68h.03Z"/>
  <path class="cls-2" d="M728.44,446.69h-63.1v31.17h63.1v-31.17Z"/>
  <path class="cls-1" d="M744.66,374.4h-125.23v160.14c0,8.63,6.97,15.64,15.64,15.64h109.56v-31.06h-93.19v-113.58h93.19v-31.13h.03Z"/>
  <path class="cls-1" d="M373.83,374.4v111.12l-83.52-111.12h-40.77v175.71h32.03v-133.62c37.86,50.13,96.1,127.14,96.45,127.59,4.4,5.72,11.68,6.62,15.32,5.79,9.19-2.12,12.58-9.4,12.58-15.25v-160.21h-32.1Z"/>
  <path class="cls-1" d="M118.87,383.87l-82.17,166.31h35.81l61.89-124.81,61.85,124.81h35.47l-81.51-165.72c-3.05-6.14-9.26-10.05-16.12-10.05-6.45,0-12.38,3.67-15.22,9.46Z"/>
  <path class="cls-1" d="M163.42,525.32h-21.18c-.21,0-.38-.17-.31-.35l4.09-45.18c.03-.35-.38-.55-.62-.24l-45.59,59.6c-.14.24,0,.55.31.55h21.15c.24,0,.31.21.31.38l-4.13,45.18c0,.35.42.49.62.21l45.59-59.6c.17-.21,0-.55-.24-.55Z"/>
</svg>
